<?xml version="1.0" encoding="UTF-8" standalone="no"?>
<!-- Heved Ríos Logo) -->

<svg
   width="76.993752mm"
   height="74.929008mm"
   viewBox="0 0 76.993751 74.929008"
   version="1.1"
   id="svg1"
   xmlSpace="preserve"
   xmlns="http://www.w3.org/2000/svg"
   xmlnsSvg="http://www.w3.org/2000/svg"><defs
     id="defs1" /><g
     id="layer1"
     transform="translate(-67.890425,-55.387711)"><path
       style="opacity:1;fill:#DC143C;fill-opacity:1;stroke-width:0.264583"
       d="M 67.890425,60.719737 106.3873,55.387711 V 88.842593 H 95.37527 V 67.642018 l -9.096304,1.216076 v 49.017226 l 9.096304,1.40317 V 97.044676 h 11.01203 v 33.272044 l -38.496875,-5.33203 z"
       id="path20" /><path
       style="opacity:1;fill:#85182a;fill-opacity:1;stroke-width:0.264583"
       d="M 144.88418,60.719737 106.3873,55.387711 v 33.454882 h 11.01203 V 67.642018 l 9.0963,1.216076 v 49.017226 l -9.0963,1.40317 V 97.044676 H 106.3873 v 33.272044 l 38.49688,-5.33203 z"
       id="path22" /><path
       style="opacity:1;fill:#ffffff;fill-opacity:1;stroke-width:0.264583"
       d="M 106.3873,88.842593 H 95.37527 V 67.642018 l -9.096304,1.216076 v 49.017226 l 9.096304,1.40317 V 97.044676 h 11.01203 v -8.202083"
       id="path26" /><path
       style="opacity:1;fill:#cdcdcd;fill-opacity:1;stroke-width:0.264583"
       d="m 106.3873,88.842593 h 11.01203 V 67.642017 l 9.0963,1.216077 v 49.017226 l -9.0963,1.40317 V 97.044676 H 106.3873 v -8.202083"
       id="path27" /></g></svg>
